<svg xmlns="http://www.w3.org/2000/svg" 
     viewBox="0 0 24 24" 
     width="24" height="24" 
     fill="currentColor">
  <path d="M12 0C5.37 0 0 5.373 0 12c0 5.303 3.438 9.8 8.205 11.387.6.113.82-.258.82-.577v-2.234c-3.338.726-4.033-1.416-4.033-1.416-.546-1.387-1.333-1.756-1.333-1.756-1.09-.745.083-.729.083-.729 1.205.084 1.84 1.238 1.84 1.238 1.07 1.834 2.807 1.304 3.492.997.108-.775.42-1.305.762-1.605-2.665-.304-5.467-1.334-5.467-5.933 0-1.312.468-2.382 1.236-3.222-.124-.303-.536-1.523.117-3.176 0 0 1.008-.322 3.3 1.23a11.5 11.5 0 013.003-.403c1.02.004 2.045.137 3.003.403 2.29-1.552 3.296-1.23 3.296-1.23.655 1.653.243 2.873.12 3.176.77.84 1.235 1.91 1.235 3.222 0 4.61-2.807 5.625-5.48 5.922.43.372.823 1.103.823 2.222v3.293c0 .322.217.694.825.576C20.565 21.796 24 17.3 24 12c0-6.627-5.373-12-12-12z"/>
</svg>